<mxfile host="app.diagrams.net" modified="2024-07-24T17:16:49.110Z" agent="Mozilla/5.0 (X11; Linux x86_64) AppleWebKit/537.36 (KHTML, like Gecko) Chrome/117.0.0.0 Safari/537.36" version="24.0.2" etag="IyelGSKHRO0sbF1bI8Pl" type="github">
  <diagram name="Page-1" id="zEIz_TAu5RoqpLVAMgX3">
    <mxGraphModel>
      <root>
        <mxCell id="0" />
        <mxCell id="1" parent="0" />
      </root>
    </mxGraphModel>
  </diagram>
</mxfile>
